<?xml version="1.0" standalone="no"?>
<!DOCTYPE svg PUBLIC "-//W3C//DTD SVG 20010904//EN"
 "http://www.w3.org/TR/2001/REC-SVG-20010904/DTD/svg10.dtd">
<svg version="1.0" xmlns="http://www.w3.org/2000/svg"
 width="260.000000pt" height="260.000000pt" viewBox="0 0 260.000000 260.000000"
 preserveAspectRatio="xMidYMid meet">
<metadata>
Created by potrace 1.11, written by Peter Selinger 2001-2013
</metadata>
<g transform="translate(0.000000,260.000000) scale(0.100000,-0.100000)"
fill="#000000" stroke="none">
<path d="M30 1300 l0 -1300 1285 0 1285 0 0 1300 0 1300 -1285 0 -1285 0 0
-1300z m990 256 c12 -78 17 -133 11 -139 -5 -5 -19 -7 -32 -5 -19 2 -33 21
-65 86 -23 46 -52 94 -65 108 -30 32 -65 28 -93 -9 -20 -28 -21 -40 -24 -426
-3 -423 0 -455 40 -449 41 6 48 40 48 234 0 168 -1 183 -21 208 -13 17 -19 37
-17 58 l3 33 140 0 140 0 3 -37 c2 -29 -1 -39 -17 -48 -20 -10 -21 -19 -21
-255 0 -134 -3 -250 -6 -259 -9 -23 -40 -20 -66 8 -13 13 -35 31 -49 40 -24
15 -26 15 -59 -19 -18 -19 -37 -32 -41 -29 -4 2 -10 0 -14 -6 -7 -12 -68 -14
-79 -2 -4 4 -11 7 -16 7 -4 0 -26 15 -48 33 -47 37 -102 140 -129 242 -26 93
-26 388 0 479 19 71 65 166 103 217 53 69 154 93 228 53 31 -17 40 -18 47 -7
5 7 9 16 9 20 0 12 44 15 57 4 7 -6 22 -69 33 -140z m408 128 c21 -15 25 -15
41 0 10 9 29 16 44 16 32 0 35 -15 39 -185 3 -119 3 -120 -20 -123 -36 -5 -48
12 -66 101 -10 45 -26 94 -36 107 -18 24 -20 24 -37 7 -17 -16 -18 -49 -21
-432 -2 -280 1 -422 8 -435 26 -48 65 -7 76 80 9 74 19 90 55 90 43 0 56 -33
40 -104 -16 -70 -45 -112 -99 -142 -52 -29 -76 -30 -128 -5 -78 38 -114 93
-157 238 -20 70 -22 100 -22 288 0 172 4 222 18 274 21 75 67 169 93 193 53
48 130 62 172 32z m610 -24 c27 -15 54 -42 70 -70 23 -39 27 -56 27 -127 0
-74 -3 -85 -30 -124 -17 -24 -48 -52 -72 -63 -23 -12 -42 -23 -42 -26 -1 -3
25 -21 58 -41 84 -52 105 -100 106 -234 0 -124 -21 -191 -76 -246 -58 -58
-111 -70 -319 -70 l-175 0 -3 31 c-2 23 3 39 20 57 l23 25 0 405 0 405 -22 18
c-23 18 -32 68 -16 84 4 4 98 6 208 4 192 -3 202 -4 243 -28z"/>
<path d="M1839 1613 c0 -5 -1 -79 -2 -165 l-2 -158 27 0 c15 0 33 7 42 15 32
33 34 241 2 290 -15 23 -65 37 -67 18z"/>
<path d="M1840 970 c0 -233 1 -240 20 -240 40 0 57 33 65 119 8 93 -3 317 -16
344 -6 10 -21 17 -39 17 l-30 0 0 -240z"/>
</g>
</svg>
